<svg id="visual" viewBox="0 0 900 450" width="900" height="450" xmlns="http://www.w3.org/2000/svg" xmlns:xlink="http://www.w3.org/1999/xlink" version="1.1"><path d="M0 28L10.7 30.3C21.3 32.7 42.7 37.3 64.2 37.3C85.7 37.3 107.3 32.7 128.8 31.2C150.3 29.7 171.7 31.3 193 32.8C214.3 34.3 235.7 35.7 257 37.2C278.3 38.7 299.7 40.3 321.2 41.2C342.7 42 364.3 42 385.8 38.2C407.3 34.3 428.7 26.7 450 23.7C471.3 20.7 492.7 22.3 514.2 24.7C535.7 27 557.3 30 578.8 33C600.3 36 621.7 39 643 42C664.3 45 685.7 48 707 47.2C728.3 46.3 749.7 41.7 771.2 41.7C792.7 41.7 814.3 46.3 835.8 43.3C857.3 40.3 878.7 29.7 889.3 24.3L900 19L900 0L889.3 0C878.7 0 857.3 0 835.8 0C814.3 0 792.7 0 771.2 0C749.7 0 728.3 0 707 0C685.7 0 664.3 0 643 0C621.7 0 600.3 0 578.8 0C557.3 0 535.7 0 514.2 0C492.7 0 471.3 0 450 0C428.7 0 407.3 0 385.8 0C364.3 0 342.7 0 321.2 0C299.7 0 278.3 0 257 0C235.7 0 214.3 0 193 0C171.7 0 150.3 0 128.8 0C107.3 0 85.7 0 64.2 0C42.7 0 21.3 0 10.7 0L0 0Z" fill="#3a4c2c"></path><path d="M0 73L10.7 76.8C21.3 80.7 42.7 88.3 64.2 89.8C85.7 91.3 107.3 86.7 128.8 82.8C150.3 79 171.7 76 193 76C214.3 76 235.7 79 257 82.8C278.3 86.7 299.7 91.3 321.2 94.3C342.7 97.3 364.3 98.7 385.8 91.8C407.3 85 428.7 70 450 68.5C471.3 67 492.7 79 514.2 88.8C535.7 98.7 557.3 106.3 578.8 104.2C600.3 102 621.7 90 643 90C664.3 90 685.7 102 707 104.2C728.3 106.3 749.7 98.7 771.2 93.3C792.7 88 814.3 85 835.8 82.8C857.3 80.7 878.7 79.3 889.3 78.7L900 78L900 17L889.3 22.3C878.7 27.7 857.3 38.3 835.8 41.3C814.3 44.3 792.7 39.7 771.2 39.7C749.7 39.7 728.3 44.3 707 45.2C685.7 46 664.3 43 643 40C621.7 37 600.3 34 578.8 31C557.3 28 535.7 25 514.2 22.7C492.7 20.3 471.3 18.7 450 21.7C428.7 24.7 407.3 32.3 385.8 36.2C364.3 40 342.7 40 321.2 39.2C299.7 38.3 278.3 36.7 257 35.2C235.7 33.7 214.3 32.3 193 30.8C171.7 29.3 150.3 27.7 128.8 29.2C107.3 30.7 85.7 35.3 64.2 35.3C42.7 35.3 21.3 30.7 10.7 28.3L0 26Z" fill="#304227"></path><path d="M0 222L10.7 222.7C21.3 223.3 42.7 224.7 64.2 216.3C85.7 208 107.3 190 128.8 187.8C150.3 185.7 171.7 199.3 193 203.8C214.3 208.3 235.7 203.7 257 196.8C278.3 190 299.7 181 321.2 174.3C342.7 167.7 364.3 163.3 385.8 164.8C407.3 166.3 428.7 173.7 450 181.2C471.3 188.7 492.7 196.3 514.2 202.3C535.7 208.3 557.3 212.7 578.8 219.3C600.3 226 621.7 235 643 229.8C664.3 224.7 685.7 205.3 707 206.8C728.3 208.3 749.7 230.7 771.2 238.2C792.7 245.7 814.3 238.3 835.8 224.2C857.3 210 878.7 189 889.3 178.5L900 168L900 76L889.3 76.7C878.7 77.3 857.3 78.7 835.8 80.8C814.3 83 792.7 86 771.2 91.3C749.7 96.7 728.3 104.3 707 102.2C685.7 100 664.3 88 643 88C621.7 88 600.3 100 578.8 102.2C557.3 104.3 535.7 96.7 514.2 86.8C492.7 77 471.3 65 450 66.5C428.7 68 407.3 83 385.8 89.8C364.3 96.7 342.7 95.3 321.2 92.3C299.7 89.3 278.3 84.7 257 80.8C235.7 77 214.3 74 193 74C171.7 74 150.3 77 128.8 80.8C107.3 84.7 85.7 89.3 64.2 87.8C42.7 86.3 21.3 78.7 10.7 74.8L0 71Z" fill="#273821"></path><path d="M0 285L10.7 287.2C21.3 289.3 42.7 293.7 64.2 289.8C85.7 286 107.3 274 128.8 265C150.3 256 171.7 250 193 245.5C214.3 241 235.7 238 257 232.8C278.3 227.7 299.7 220.3 321.2 212.2C342.7 204 364.3 195 385.8 198.7C407.3 202.3 428.7 218.7 450 229.2C471.3 239.7 492.7 244.3 514.2 247.3C535.7 250.3 557.3 251.7 578.8 255.3C600.3 259 621.7 265 643 263.5C664.3 262 685.7 253 707 258.3C728.3 263.7 749.7 283.3 771.2 287.8C792.7 292.3 814.3 281.7 835.8 272.7C857.3 263.7 878.7 256.3 889.3 252.7L900 249L900 166L889.3 176.5C878.7 187 857.3 208 835.8 222.2C814.3 236.3 792.7 243.7 771.2 236.2C749.7 228.7 728.3 206.3 707 204.8C685.7 203.3 664.3 222.7 643 227.8C621.7 233 600.3 224 578.8 217.3C557.3 210.7 535.7 206.3 514.2 200.3C492.7 194.3 471.3 186.7 450 179.2C428.7 171.7 407.3 164.3 385.8 162.8C364.3 161.3 342.7 165.7 321.2 172.3C299.7 179 278.3 188 257 194.8C235.7 201.7 214.3 206.3 193 201.8C171.7 197.3 150.3 183.7 128.8 185.8C107.3 188 85.7 206 64.2 214.3C42.7 222.7 21.3 221.3 10.7 220.7L0 220Z" fill="#1e2f1c"></path><path d="M0 312L10.7 315C21.3 318 42.7 324 64.2 319.5C85.7 315 107.3 300 128.8 291C150.3 282 171.7 279 193 279.7C214.3 280.3 235.7 284.7 257 284.7C278.3 284.7 299.7 280.3 321.2 272.8C342.7 265.3 364.3 254.7 385.8 257.7C407.3 260.7 428.7 277.3 450 287.2C471.3 297 492.7 300 514.2 302.2C535.7 304.3 557.3 305.7 578.8 306.3C600.3 307 621.7 307 643 301.8C664.3 296.7 685.7 286.3 707 291.7C728.3 297 749.7 318 771.2 327C792.7 336 814.3 333 835.8 323.2C857.3 313.3 878.7 296.7 889.3 288.3L900 280L900 247L889.3 250.7C878.7 254.3 857.3 261.7 835.8 270.7C814.3 279.7 792.7 290.3 771.2 285.8C749.7 281.3 728.3 261.7 707 256.3C685.7 251 664.3 260 643 261.5C621.7 263 600.3 257 578.8 253.3C557.3 249.7 535.7 248.3 514.2 245.3C492.7 242.3 471.3 237.7 450 227.2C428.7 216.7 407.3 200.3 385.8 196.7C364.3 193 342.7 202 321.2 210.2C299.7 218.3 278.3 225.7 257 230.8C235.7 236 214.3 239 193 243.5C171.7 248 150.3 254 128.8 263C107.3 272 85.7 284 64.2 287.8C42.7 291.7 21.3 287.3 10.7 285.2L0 283Z" fill="#162517"></path><path d="M0 397L10.7 400.8C21.3 404.7 42.7 412.3 64.2 417.7C85.7 423 107.3 426 128.8 425.2C150.3 424.3 171.7 419.7 193 420.3C214.3 421 235.7 427 257 424.8C278.3 422.7 299.7 412.3 321.2 407.8C342.7 403.3 364.3 404.7 385.8 404.7C407.3 404.7 428.7 403.3 450 401.8C471.3 400.3 492.7 398.7 514.2 403.2C535.7 407.7 557.3 418.3 578.8 421.3C600.3 424.3 621.7 419.7 643 414.3C664.3 409 685.7 403 707 404.5C728.3 406 749.7 415 771.2 418.8C792.7 422.7 814.3 421.3 835.8 418.3C857.3 415.3 878.7 410.7 889.3 408.3L900 406L900 278L889.3 286.3C878.7 294.7 857.3 311.3 835.8 321.2C814.3 331 792.7 334 771.2 325C749.7 316 728.3 295 707 289.7C685.7 284.3 664.3 294.7 643 299.8C621.7 305 600.3 305 578.8 304.3C557.3 303.7 535.7 302.3 514.2 300.2C492.7 298 471.3 295 450 285.2C428.7 275.3 407.3 258.7 385.8 255.7C364.3 252.7 342.7 263.3 321.2 270.8C299.7 278.3 278.3 282.7 257 282.7C235.7 282.7 214.3 278.3 193 277.7C171.7 277 150.3 280 128.8 289C107.3 298 85.7 313 64.2 317.5C42.7 322 21.3 316 10.7 313L0 310Z" fill="#0f1c10"></path><path d="M0 451L10.7 451C21.3 451 42.7 451 64.2 451C85.7 451 107.3 451 128.8 451C150.3 451 171.7 451 193 451C214.3 451 235.7 451 257 451C278.3 451 299.7 451 321.2 451C342.7 451 364.3 451 385.8 451C407.3 451 428.7 451 450 451C471.3 451 492.7 451 514.2 451C535.7 451 557.3 451 578.8 451C600.3 451 621.7 451 643 451C664.3 451 685.7 451 707 451C728.3 451 749.7 451 771.2 451C792.7 451 814.3 451 835.8 451C857.3 451 878.7 451 889.3 451L900 451L900 404L889.3 406.3C878.7 408.7 857.3 413.3 835.8 416.3C814.3 419.3 792.7 420.7 771.2 416.8C749.7 413 728.3 404 707 402.5C685.7 401 664.3 407 643 412.3C621.7 417.7 600.3 422.3 578.8 419.3C557.3 416.3 535.7 405.7 514.2 401.2C492.7 396.7 471.3 398.3 450 399.8C428.7 401.3 407.3 402.7 385.8 402.7C364.3 402.7 342.7 401.3 321.2 405.8C299.7 410.3 278.3 420.7 257 422.8C235.7 425 214.3 419 193 418.3C171.7 417.7 150.3 422.3 128.8 423.2C107.3 424 85.7 421 64.2 415.7C42.7 410.3 21.3 402.7 10.7 398.8L0 395Z" fill="#031306"></path></svg>