<svg id="visual" viewBox="0 0 900 450" width="900" height="450" xmlns="http://www.w3.org/2000/svg" xmlns:xlink="http://www.w3.org/1999/xlink" version="1.1"><rect x="0" y="0" width="900" height="450" fill="#001220"></rect><path d="M0 170L21.5 165.3C43 160.7 86 151.3 128.8 152.7C171.7 154 214.3 166 257.2 172.5C300 179 343 180 385.8 178.5C428.7 177 471.3 173 514.2 166.3C557 159.7 600 150.3 642.8 161.8C685.7 173.3 728.3 205.7 771.2 218.7C814 231.7 857 225.3 878.5 222.2L900 219L900 0L878.5 0C857 0 814 0 771.2 0C728.3 0 685.7 0 642.8 0C600 0 557 0 514.2 0C471.3 0 428.7 0 385.8 0C343 0 300 0 257.2 0C214.3 0 171.7 0 128.8 0C86 0 43 0 21.5 0L0 0Z" fill="#0c6909"></path><path d="M0 213L21.5 213.8C43 214.7 86 216.3 128.8 203.5C171.7 190.7 214.3 163.3 257.2 157.2C300 151 343 166 385.8 163.8C428.7 161.7 471.3 142.3 514.2 140.5C557 138.7 600 154.3 642.8 165.5C685.7 176.7 728.3 183.3 771.2 184C814 184.7 857 179.3 878.5 176.7L900 174L900 0L878.5 0C857 0 814 0 771.2 0C728.3 0 685.7 0 642.8 0C600 0 557 0 514.2 0C471.3 0 428.7 0 385.8 0C343 0 300 0 257.2 0C214.3 0 171.7 0 128.8 0C86 0 43 0 21.5 0L0 0Z" fill="#025811"></path><path d="M0 95L21.5 92.3C43 89.7 86 84.3 128.8 97C171.7 109.7 214.3 140.3 257.2 141.5C300 142.7 343 114.3 385.8 109.5C428.7 104.7 471.3 123.3 514.2 126.7C557 130 600 118 642.8 116.2C685.7 114.3 728.3 122.7 771.2 124.7C814 126.7 857 122.3 878.5 120.2L900 118L900 0L878.5 0C857 0 814 0 771.2 0C728.3 0 685.7 0 642.8 0C600 0 557 0 514.2 0C471.3 0 428.7 0 385.8 0C343 0 300 0 257.2 0C214.3 0 171.7 0 128.8 0C86 0 43 0 21.5 0L0 0Z" fill="#004714"></path><path d="M0 68L21.5 72.2C43 76.3 86 84.7 128.8 84.8C171.7 85 214.3 77 257.2 78C300 79 343 89 385.8 91.5C428.7 94 471.3 89 514.2 89.3C557 89.7 600 95.3 642.8 95.7C685.7 96 728.3 91 771.2 92.3C814 93.7 857 101.3 878.5 105.2L900 109L900 0L878.5 0C857 0 814 0 771.2 0C728.3 0 685.7 0 642.8 0C600 0 557 0 514.2 0C471.3 0 428.7 0 385.8 0C343 0 300 0 257.2 0C214.3 0 171.7 0 128.8 0C86 0 43 0 21.5 0L0 0Z" fill="#003613"></path><path d="M0 45L21.5 48C43 51 86 57 128.8 55.2C171.7 53.3 214.3 43.7 257.2 35.8C300 28 343 22 385.8 29.7C428.7 37.3 471.3 58.7 514.2 67.7C557 76.7 600 73.3 642.8 73.7C685.7 74 728.3 78 771.2 77.5C814 77 857 72 878.5 69.5L900 67L900 0L878.5 0C857 0 814 0 771.2 0C728.3 0 685.7 0 642.8 0C600 0 557 0 514.2 0C471.3 0 428.7 0 385.8 0C343 0 300 0 257.2 0C214.3 0 171.7 0 128.8 0C86 0 43 0 21.5 0L0 0Z" fill="#022610"></path></svg>