<?xml version="1.0" encoding="UTF-8"?>
<svg xmlns="http://www.w3.org/2000/svg" viewBox="0 0 378.78 378.88">
  <defs>
    <style>
      .cls-1 {
        fill: #f9d967;
      }

      .cls-2 {
        fill: #009245;
      }

      .cls-3 {
        fill: #fff;
      }

      .cls-4 {
        fill: #8cc63f;
      }

      .cls-5 {
        fill: #f7931e;
        stroke: #c69c6d;
      }

      .cls-5, .cls-6, .cls-7 {
        stroke-miterlimit: 10;
      }

      .cls-6 {
        fill: #aeebff;
      }

      .cls-6, .cls-7 {
        stroke: #000;
      }

      .cls-7 {
        fill: #c69c6d;
      }
    </style>
  </defs>
  <g id="Layer_1" data-name="Layer 1">
    <path class="cls-6" d="m377.65,297.69c.03-.48.08-.95.13-1.42V48.29c0-25.96-21.24-47.2-47.2-47.2H47.7C21.74,1.1.5,22.34.5,48.29v282.89c0,25.96,21.24,47.2,47.2,47.2h282.89c25.96,0,47.2-21.24,47.2-47.2v-32.17c-.11-.42-.16-.85-.13-1.32Z"/>
  </g>
  <g id="Layer_3" data-name="Layer 3">
    <g>
      <path class="cls-1" d="m253.74,38.41c-1.87-2.85-3.58-5.83-5.11-8.92-.74-1.5-1.43-3.02-2.08-4.56-.17-.41-.34-.82-.51-1.24-.08-.21-.17-.42-.25-.62.1.27.08.22-.06-.15-.32-.84-.62-1.68-.91-2.53-.56-1.61-2.07-2.89-3.73-2.31-1.45.51-2.72,2.33-2.12,4.07,2.41,6.96,5.56,13.55,9.53,19.6.92,1.4,2.68,2.21,4.15,1.19,1.28-.9,2.07-3.02,1.09-4.52Z"/>
      <path class="cls-1" d="m236.08,55.37c-6.45-3.1-13.07-5.73-19.86-7.79-1.53-.46-3.37.57-3.73,2.31-.37,1.75.48,3.57,2.12,4.07,6.27,1.9,12.63,4.35,18.41,7.12,1.45.7,3.32.51,4.15-1.19.69-1.43.46-3.78-1.09-4.52Z"/>
      <path class="cls-1" d="m226.45,81.67c-7.07-3.03-14.73-4.43-22.32-4.13-1.64.06-3.03,1.47-3.03,3.31s1.39,3.37,3.03,3.31c7.13-.28,14.06,1.04,20.71,3.89,1.52.65,3.33-.72,3.73-2.31.47-1.88-.59-3.41-2.12-4.07Z"/>
      <path class="cls-1" d="m223.8,111.07c-.82-1.39-2.77-2.27-4.15-1.19-5.31,4.17-11.6,8.03-17.26,10.57-1.46.66-2.66,2.22-2.12,4.07.46,1.53,2.16,3.01,3.73,2.31,6.62-2.97,12.89-6.67,18.71-11.24,1.28-1.01,2.03-2.92,1.09-4.52Z"/>
      <path class="cls-1" d="m238.11,143.35c-1.56-.99-3.15-.24-4.15,1.19-5.1,7.32-9.15,15.35-12.27,23.88-.61,1.66.66,3.63,2.12,4.07,1.73.52,3.12-.64,3.73-2.31,2.88-7.89,6.91-15.48,11.66-22.3.99-1.42.21-3.7-1.09-4.52Z"/>
      <path class="cls-1" d="m263.36,153.79v29.25c0,4.25,6.06,4.26,6.06,0v-29.25c0-4.25-6.06-4.26-6.06,0Z"/>
      <path class="cls-1" d="m307.48,187.55c-3.62-10.92-6.4-22.14-8.31-33.56-.29-1.76-2.25-2.75-3.73-2.31-1.69.51-2.41,2.3-2.12,4.07,1.91,11.42,4.69,22.64,8.31,33.56.56,1.68,2.06,2.81,3.73,2.31,1.49-.45,2.68-2.38,2.12-4.07Z"/>
      <path class="cls-1" d="m353.65,166.64c-6.24-6.69-12.16-13.73-17.73-21.09-1.01-1.34-3.25-1.23-4.29,0-1.2,1.42-1.08,3.25,0,4.67,5.57,7.36,11.48,14.4,17.73,21.09,1.13,1.21,3.17,1.32,4.29,0,1.1-1.31,1.21-3.38,0-4.67Z"/>
      <path class="cls-1" d="m366.56,130.06c-7.33-1.7-14.85-2.24-22.32-1.49-1.63.16-3.03,1.4-3.03,3.31,0,1.66,1.39,3.47,3.03,3.31,6.93-.7,13.9-.32,20.71,1.25,1.6.37,3.28-.52,3.73-2.31.41-1.64-.51-3.69-2.12-4.07Z"/>
      <path class="cls-1" d="m371.02,90.85c-.5-1.7-2.09-2.81-3.73-2.31-1.21.37-2.44.69-3.67.95-.62.13-1.24.25-1.86.35-.1.02-.2.03-.31.05-.05,0-.1.01-.18.03-.29.03-.58.07-.87.11-2.51.28-5.03.32-7.55.14-1.59-.11-3.1,1.6-3.03,3.31.08,1.89,1.33,3.19,3.03,3.31,5.39.38,10.85-.27,16.05-1.86,1.53-.47,2.62-2.36,2.12-4.07Z"/>
      <path class="cls-1" d="m360.48,46.91c-.5-1.67-2.1-2.84-3.73-2.31-8.55,2.79-16.96,9.03-18.95,19.12-.33,1.69.46,3.65,2.12,4.07,1.53.38,3.37-.5,3.73-2.31.2-1,.47-1.96.81-2.91,0-.02,0,0,0-.02.02-.03.02-.04.06-.12.1-.21.19-.43.29-.65.22-.47.47-.93.73-1.39.24-.41.49-.81.75-1.2.04-.07.05-.07.07-.11,0-.01,0,0,.03-.03.15-.18.28-.38.43-.56.61-.77,1.28-1.49,1.98-2.17.17-.16.35-.32.52-.48.08-.08.11-.1.13-.13.01,0,0,0,.04-.03.38-.31.77-.61,1.16-.89.83-.6,1.7-1.15,2.59-1.64.42-.24.85-.46,1.29-.67-.01,0,.32-.15.44-.21.14-.06.38-.17.42-.18.98-.42,1.97-.78,2.98-1.11,1.52-.5,2.63-2.34,2.12-4.07Z"/>
      <path class="cls-1" d="m321.65,18.36c-1.71-.51-3.14.64-3.73,2.31-3,8.47-4.53,17.53-4.58,26.6-.02,4.25,6.04,4.26,6.06,0,.05-8.53,1.55-16.89,4.36-24.85.59-1.67-.65-3.63-2.12-4.07Z"/>
      <path class="cls-1" d="m287.1,31.52c-1.36-6.29-1.9-12.32-1.69-18.93.05-1.73-1.43-3.38-3.03-3.31-1.69.08-2.97,1.45-3.03,3.31-.22,6.95.45,13.92,1.91,20.69.36,1.68,2.21,2.84,3.73,2.31,1.61-.57,2.51-2.26,2.12-4.07Z"/>
      <path class="cls-1" d="m317.22,86.73c-3.01-6.35-7.68-11.4-12.7-15.95.3-1.19.03-2.54-1.21-3.37-7.59-5.07-16.11-10.38-25.36-9.12-8.9,1.22-16.59,8.08-23.42,13.92-3.45,2.95-7.34,5.98-9.82,10-2.42,3.91-2.3,8.59-2.3,13.11,0,10.17-1.4,21.26,4.42,29.95,9.44,14.09,26.1,25.4,42.53,24.09,7.43-.59,14.57-3.53,20.38-8.63,6.3-5.53,9.75-13.32,10.77-21.98,1.22-10.36,1.2-22.56-3.28-32.02Z"/>
    </g>
    <path class="cls-3" d="m360.18,187.05c-4.41-11.38-18.64-9.39-28.6-9.57,15.35-36.38-25.11-40.95-41.95-15.05-8.48-33.31-29.1-26.49-42.93-1.46-8.9-36.3-58.56-16.54-50.85,15.41-8.79,1.06-17.54.88-24.89,6.61-9.35,6.17-23.59,25.85-10.6,34.25,17.05,6.39,35.9,3.36,53.7,3.61,21.39-.79,43.11,1.25,64.25-2.62,15.12-6.82,29.67,5.3,44.68,7.9,26.8,7.4,49.12-11.59,37.19-39.08Z"/>
  </g>
  <g id="Layer_5" data-name="Layer 5">
    <path class="cls-4" d="m182.8,83.33c-3.6,4.36-6.82,9-9.71,13.82,7.3-34.23-13.64-5.65-15.48,9.41-3.91-22.56,4.07-41.32,16.72-59.13-5.38-15.73-25.71,12.74-29.34,19.93-.04-6.26-9.31-34.17-14.64-18.92,2,10.84.35,21.84-.2,32.79-5.29-5.68-10.36-11.97-17.3-15.67-4.27-2.17-8.05,4.27-3.76,6.46,8.88,4.61,12.08,15.03,14.59,24.05-12.28-16.82-20.87-13.22-10.64,6.16-1.77-11.58-44.48-42.02-27.62-13.3,7.34,15.99,9.38,40.06,20.07,52.47,16.66-.05,54.46,11.35,64.33-2-2.85-10.98,32.78-60.11,12.99-56.08Z"/>
    <path class="cls-2" d="m92.99,93.01c7.86,10.05,13.15,21.97,15.49,34.5.35,1.9,3.25,1.09,2.89-.8-2.44-13.07-8.08-25.35-16.26-35.82-1.19-1.52-3.3.62-2.12,2.12h0Z"/>
    <path class="cls-2" d="m92.06,91.61c4.19,11.37,6.82,23.28,7.76,35.36.15,1.91,3.15,1.93,3,0-.95-12.35-3.58-24.53-7.86-36.16-.66-1.8-3.56-1.02-2.89.8h0Z"/>
    <path class="cls-2" d="m97.01,102.85c.06,5.59,1.56,10.98,3.1,16.31.46,1.58,3.03,1.34,2.95-.4-.21-4.6-.42-9.19-.64-13.79l-2.95.4,6.45,17.18,1.85-1.85c-2.06-.6-4.12-1.21-6.18-1.81v2.89c1.75-.55,3.55-1.54,3.64-3.6.05-1.07-.45-2.1-.82-3.07-.46-1.2-.91-2.4-1.37-3.6-.29-.76-1.01-1.28-1.85-1.05-.72.2-1.34,1.08-1.05,1.85.59,1.56,1.21,3.11,1.78,4.68.13.36.45.91.21,1.26s-.98.52-1.35.63c-1.4.44-1.45,2.47,0,2.89,2.06.6,4.12,1.21,6.18,1.81,1.03.3,2.25-.76,1.85-1.85-2.15-5.73-4.3-11.46-6.45-17.18-.56-1.48-3.03-1.41-2.95.4.21,4.6.42,9.19.64,13.79l2.95-.4c-1.46-5.07-2.93-10.19-2.99-15.51-.02-1.93-3.02-1.93-3,0h0Z"/>
    <path class="cls-2" d="m98.77,102.14c1.93,0,1.93-3,0-3s-1.93,3,0,3h0Z"/>
    <path class="cls-2" d="m114.32,94.34c8.96,7.86,7.57,21.25,9.31,31.92.31,1.9,3.2,1.09,2.89-.8-1.85-11.31-.58-24.91-10.08-33.24-1.45-1.27-3.58.85-2.12,2.12h0Z"/>
    <path class="cls-2" d="m113.96,93.69c1.92,1.64,2.39,4.21,2.91,6.56.65,2.99,1.14,6.01,1.46,9.04s.46,5.89.46,8.84c0,1.4-.02,2.8-.1,4.2-.07,1.2-.21,2.49-1.05,3.41-1.3,1.42.81,3.55,2.12,2.12,2.06-2.25,1.97-5.42,2.02-8.29.06-3.43-.1-6.86-.45-10.27s-.88-6.75-1.62-10.08c-.61-2.78-1.37-5.72-3.63-7.65-1.46-1.25-3.59.86-2.12,2.12h0Z"/>
    <path class="cls-2" d="m119.66,106.9l.54,16.21c.06,1.93,3.06,1.93,3,0l-.54-16.21c-.06-1.93-3.06-1.93-3,0h0Z"/>
    <path class="cls-2" d="m171.07,47.96c-.25,3.63-2.93,6.55-4.79,9.48-2.17,3.41-3.1,7.35-4.95,10.91s-3.84,7.2-4.97,11.22-1.63,7.92-1.79,11.94c-.19,4.6.12,9.2.66,13.76.22,1.89,3.22,1.92,3,0-.94-7.98-1.23-16.23.8-24.07,1.06-4.09,2.96-7.61,4.89-11.33s2.83-7.63,5.06-11.08,4.8-6.6,5.1-10.83c.13-1.93-2.87-1.92-3,0h0Z"/>
    <path class="cls-2" d="m155.07,105.24c.66,6.75,2.55,13.28,5.63,19.33.88,1.72,3.46.2,2.59-1.51-2.82-5.55-4.61-11.62-5.22-17.82-.08-.81-.63-1.5-1.5-1.5-.75,0-1.58.69-1.5,1.5h0Z"/>
    <path class="cls-2" d="m111.51,66.89c7.21,2.87,13.43,8.14,17.48,14.75,2.29,3.74,3.75,7.85,4.91,12.06,1.31,4.74,2.33,9.55,3.19,14.39.96,5.42,1.72,10.86,2.47,16.31.11.81,1.14,1.23,1.85,1.05.87-.23,1.16-1.05,1.05-1.85-1.4-10.16-2.84-20.35-5.54-30.26-1.2-4.41-2.7-8.77-5.04-12.72-2.08-3.52-4.74-6.74-7.82-9.44-3.48-3.07-7.44-5.47-11.75-7.18-1.79-.71-2.57,2.19-.8,2.89h0Z"/>
    <path class="cls-2" d="m172.01,81.41c-4.58.9-7.21,5.86-9.44,9.49-1.34,2.18-2.65,4.38-3.89,6.61s-2.18,4.47-2.16,7c.01,1.93,3.01,1.93,3,0-.02-2.12.92-4.01,1.94-5.82,1.13-2,2.29-3.97,3.49-5.93,1.11-1.81,2.23-3.66,3.53-5.34,1.13-1.46,2.47-2.75,4.34-3.12s1.09-3.27-.8-2.89h0Z"/>
    <path class="cls-2" d="m184.59,82.7c-3.59-1.27-6.38,2.61-8.14,5.12-1.89,2.7-3.32,5.74-4.24,8.91-.54,1.86,2.35,2.65,2.89.8.78-2.65,1.93-5.15,3.44-7.46.72-1.1,1.51-2.14,2.39-3.12.73-.81,1.68-1.77,2.86-1.36.76.27,1.64-.31,1.85-1.05.23-.83-.28-1.57-1.05-1.85h0Z"/>
    <path class="cls-2" d="m80.04,78.92c2.03,3.39,4.07,6.79,5.72,10.39s2.76,7.25,3.82,10.98c2.23,7.84,4.36,15.7,6.54,23.55.52,1.86,3.41,1.07,2.89-.8-2.22-8-4.38-16.02-6.67-24-1.08-3.75-2.28-7.47-3.9-11.03s-3.75-7.15-5.82-10.61c-.99-1.65-3.59-.15-2.59,1.51h0Z"/>
    <path class="cls-2" d="m107.04,71.26c9.47,3.54,12.69,14.35,15.16,23.17.52,1.86,3.42,1.07,2.89-.8-2.81-10.02-6.61-21.29-17.26-25.26-1.81-.68-2.59,2.22-.8,2.89h0Z"/>
    <path class="cls-2" d="m112.41,65.36c-2.92-.88-6.1-.07-8.37,1.93-.59.52-.57,1.6,0,2.12.63.58,1.49.55,2.12,0,.08-.07.29-.19.33-.28-.03.07-.22.16-.05.04.06-.04.12-.08.18-.12.24-.16.48-.3.74-.44.09-.04.34-.11.39-.18-.04.05-.27.1-.06.03.07-.03.13-.05.2-.08.29-.1.58-.19.87-.25.14-.03.28-.06.42-.08.04,0,.29-.05.07-.01s.02,0,.07,0c.28-.03.57-.04.85-.03.14,0,.29.01.43.02.05,0,.29.04.07,0s.02,0,.07.01c.3.05.6.12.89.21.75.23,1.67-.27,1.85-1.05s-.24-1.6-1.05-1.85h0Z"/>
    <path class="cls-2" d="m112.35,65.6s-.51.1-.33.07c.18-.02-.22.01-.27.01-.16,0-.31,0-.47,0-.08,0-.46-.07-.13,0-.27-.05-.52-.13-.78-.2-.32-.09.13.09-.14-.05-.16-.08-.32-.17-.48-.26v2.59c.76-.44,1.52-.89,2.27-1.33,1.29-.76.73-2.78-.76-2.8-2.94-.03-5.85,1.3-7.75,3.55-.51.6-.63,1.54,0,2.12.56.51,1.58.64,2.12,0,.38-.45.81-.87,1.27-1.24-.27.21.16-.11.21-.14.11-.07.21-.14.32-.21.27-.17.55-.32.84-.46.06-.03.49-.2.16-.08.14-.05.28-.11.42-.15.28-.1.57-.18.85-.24.14-.03.29-.06.44-.09.17-.03.17-.03-.02,0,.06,0,.13-.02.19-.02.32-.03.63-.04.95-.04l-.76-2.8c-.76.44-1.52.89-2.27,1.33-.98.57-.96,2.01,0,2.59,1.49.89,3.24,1.14,4.92.74.76-.18,1.29-1.09,1.05-1.85-.26-.8-1.03-1.24-1.85-1.05h0Z"/>
    <path class="cls-2" d="m147.6,72.16c.82-6.67-1.54-13.23-4.5-19.1-2.41-4.78-5.84-9.55-11.24-11.06-1.37-.38-2.2,1.07-1.69,2.2.55,1.24.63,2.63.25,3.92s-.91,2.4-.81,3.79.46,2.82.6,4.24.21,2.87.22,4.3c.02,5.83-.96,11.6-1.94,17.32-.33,1.89,2.57,2.7,2.89.8,1.06-6.14,2.13-12.35,2.05-18.6-.02-1.52-.11-3.03-.29-4.54-.17-1.41-.74-3.07-.5-4.48s.96-2.65,1.02-4.15-.31-2.82-.89-4.13l-1.69,2.2c4.74,1.33,7.55,5.86,9.61,10.01,2.66,5.35,4.67,11.21,3.93,17.26-.23,1.91,2.77,1.89,3,0h0Z"/>
    <path class="cls-2" d="m109.64,93.11c-8.51-6.4-16.95-13.7-27.19-17.17-1.83-.62-2.62,2.27-.8,2.89,9.93,3.37,18.21,10.66,26.47,16.87,1.54,1.16,3.04-1.44,1.51-2.59h0Z"/>
    <path class="cls-2" d="m182.14,86.73h2.83c.37,0,2.69.22,2.83,0l-.38-.61c-.04.28-.08.56-.14.83-.08.46-.17.91-.27,1.37-.17.83-.37,1.66-.59,2.48-.93,3.53-2.21,6.95-3.62,10.32-2.92,6.99-6.13,13.87-9.21,20.79-.78,1.75,1.81,3.28,2.59,1.51,3.5-7.86,7.22-15.67,10.39-23.67,1.54-3.89,2.86-7.88,3.6-12.01.29-1.63.43-3.51-1.62-3.95-.98-.21-2.12-.07-3.12-.07h-3.3c-1.93,0-1.93,3.01,0,3h0Z"/>
    <path class="cls-2" d="m181.62,85.89l2.75-3.15c.44-.51.87-1.02,1.32-1.52.15-.17.31-.32.48-.46-.29.24.09-.05.16-.09l.1-.05c.15-.07.13-.07-.06.02.02-.07.54-.06-.01-.03.17,0,.12-.01-.13-.03.12.04.12.03-.01-.01-.1-.03-.18-.08-.25-.15-.08-.08-.13-.18-.15-.29.02.05.03.11.05.17.02.11.02.08-.01-.11.04.07,0,.26.01.35,0,.21,0,.42,0,.63,0,.31,0,.63,0,.94,0,1.41,0,2.81.01,4.22,0,.75.57,1.37,1.3,1.47.79.11,1.36-.37,1.65-1.07.77-1.91,1.41-3.88.98-5.96s-2.41-4.36-4.68-3.5c-1.97.74-2.53,3.02-3.24,4.78-.43,1.06-1.06,2.27-.31,3.35s2.18,1.31,3.31.7c1.01-.55,1.72-1.68,2.39-2.58s1.28-1.81,1.84-2.76c.43-.71.14-1.62-.54-2.05-2-1.27-5.11-.02-5.53,2.36-.14.77.21,1.65,1.05,1.85.73.17,1.7-.22,1.85-1.05.01-.08.03-.15.05-.23.06-.3.03.05-.04.06.02,0,.11-.18.11-.2.05-.14-.24.24-.04.05.04-.04.08-.09.13-.13.03-.03.07-.06.1-.09.06-.05.05-.04-.04.03-.1.08-.1.08,0,.01l.08-.05c.09-.05.26-.06.07-.05s0,0,.08-.02c.06-.02.12-.03.18-.05.28-.09-.24,0-.08,0,.08,0,.15-.01.23,0,.06,0,.34,0,.07,0-.25,0,.01.02.07.03.22.04-.09,0-.1-.05,0,.01.23.13.24.14l-.54-2.05c-.39.66-.81,1.31-1.25,1.94-.21.3-.42.59-.64.88-.06.08-.12.15-.17.23-.15.19.12-.15-.03.04-.14.17-.27.34-.41.51-.09.11-.19.23-.28.34-.05.06-.11.12-.16.17-.03.03-.22.21-.07.08s-.05.02-.09.05c-.12.1.06-.02.09-.03-.26.05.09,0,.12,0-.3.02.31.09.02,0,.24.07.41.23.5.46.04.11.03.23.06.33.04.11-.01.06.03-.04.16-.38.3-.76.46-1.14.14-.35.28-.7.42-1.04.07-.19.15-.37.22-.56.04-.09.07-.19.11-.28.02-.04.17-.37.06-.16-.09.19.08-.17.11-.23.07-.13.14-.26.22-.39.01-.02.12-.18.12-.18.02.01-.25.27-.03.05.05-.05.1-.1.15-.15.17-.18-.06.04-.06.04,0,.02.16-.12.17-.1.05.04-.32.09-.07.05-.4.06-.14.03-.06.01-.03,0-.34-.06-.02,0,.1.02.2.12,0-.01.07.05.15.09.22.13-.03-.02-.16-.15-.05-.03.07.08.15.15.22.22.19.19.03.03,0-.02.05.07.09.13.13.2.09.14.15.28.23.42-.13-.26,0,.02.04.15.05.18.09.35.13.53.02.09.09.24,0-.04.03.09.02.21.02.3,0,.18,0,.37,0,.55,0,.08-.01.16-.02.24,0,.12-.03.19,0,.03-.04.24-.09.47-.14.7-.21.84-.53,1.65-.86,2.45l2.95.4c0-1.62-.01-3.23-.02-4.85,0-.86.09-1.83-.35-2.61s-1.26-1.27-2.16-1.25c-1.64.04-2.72,1.42-3.7,2.54l-3.15,3.62c-.51.59-.63,1.55,0,2.12.56.52,1.57.63,2.12,0h0Z"/>
    <path class="cls-2" d="m187.7,89.88c1.37-3.39,2.18-6.95,2.46-10.59.13-1.66-2.69-2.08-2.95-.4-.42,2.77-.85,5.54-1.27,8.32-.29,1.92,2.16,2.6,2.89.8,1.63-4.02,1.61-8.71-.07-12.71-.39-.92-1.7-1.63-2.51-.66-1.64,1.97-3.11,4.07-4.38,6.29-.96,1.68,1.57,3.15,2.59,1.51l2.72-4.37.66-1.06c.1-.15.33-.39.35-.56.03-.22.26,0-.12-.03,0,0-.63.12-.55,0-.01.02.08.12.09.16.04.23.15.46.18.7.49,3.31-.45,6.7-1.27,9.87-.48,1.87,2.41,2.67,2.89.8.56-2.18,1.09-4.36,1.35-6.59.23-1.97.41-4.49-.56-6.29-.46-.86-1.31-1.58-2.33-1.58-1.19,0-1.9.85-2.47,1.77-1.18,1.89-2.35,3.78-3.53,5.67l2.59,1.51c1.14-2,2.44-3.91,3.91-5.69l-2.51-.66c1.51,3.59,1.54,7.51.07,11.12l2.89.8c.42-2.77.85-5.54,1.27-8.32l-2.95-.4c-.26,3.37-1.08,6.66-2.35,9.79-.3.75.33,1.65,1.05,1.85.86.24,1.54-.29,1.85-1.05h0Z"/>
    <path class="cls-2" d="m171.51,83.38c.26,3.71.26,7.44,0,11.15-.06.81.73,1.5,1.5,1.5.86,0,1.44-.69,1.5-1.5.27-3.71.27-7.44,0-11.15-.06-.81-.65-1.5-1.5-1.5-.77,0-1.56.69-1.5,1.5h0Z"/>
    <path class="cls-2" d="m173.98,48.79c.17-2.98-.51-6.49-3.93-7.22s-6.05,1.61-8.08,4.04c-5.12,6.1-10.49,11.97-16.19,17.53-1.38,1.35.74,3.47,2.12,2.12,4.71-4.59,9.22-9.38,13.51-14.36.99-1.15,1.95-2.32,2.93-3.47.86-1.01,1.8-2.13,3.04-2.68.97-.43,2.34-.54,3.07.38s.59,2.53.52,3.65c-.11,1.93,2.89,1.92,3,0h0Z"/>
    <path class="cls-4" d="m182.8,90.29c.4-1.68,1.54-3,2.57-4.34.52-.68,1.04-1.38,1.46-2.14s.61-1.77,1.16-2.46l-2.56-1.06c-.13,1.71-.86,3.39-1.39,5-.57,1.73-1.15,3.46-1.72,5.2-.53,1.59,2.01,2.71,2.74,1.16,1.77-3.78,3.53-7.66,3.55-11.91,0-.81-.69-1.5-1.5-1.5-.88,0-1.41.69-1.5,1.5-.61,5.72-2.64,11.22-5.79,16.02-1.06,1.62,1.53,3.12,2.59,1.51,3.45-5.27,5.53-11.28,6.2-17.53h-3c-.02,3.7-1.6,7.11-3.14,10.4l2.74,1.16c.61-1.83,1.22-3.67,1.82-5.5s1.26-3.58,1.4-5.49c.09-1.23-1.76-2.08-2.56-1.06-.7.88-1,1.87-1.51,2.85-.44.84-1,1.6-1.57,2.35-1.2,1.56-2.4,3.11-2.87,5.06s2.44,2.68,2.89.8h0Z"/>
    <path class="cls-4" d="m177.45,96.85s-.17.02-.2.05c.04-.04.33-.02.1-.02-.13,0-.26,0-.39,0-.21-.01.05-.02.1.01-.05-.03-.14-.03-.2-.04-.13-.03-.26-.07-.4-.1-.55-.16-1.09-.39-1.65-.53-.59-.15-1.19-.19-1.8-.22-.12,0-.23-.02-.35-.03-.18-.01.32.07.15.02-.05-.02-.11-.02-.16-.03s-.1-.04-.15-.05c-.18-.03.31.11.14.06-.05-.02-.21-.14,0,0,.1.08.12.09.06.04-.08-.08-.04-.03.1.15-.24-.32-.49-.58-.9-.69-.36-.1-.84-.05-1.16.15-.62.4-1.04,1.38-.54,2.05.55.74,1.23,1.13,2.13,1.25.33.04.65.07.99.08.13,0,.26.02.39.03.16,0-.32-.07-.05,0,.08.02.17.03.25.05.63.15,1.22.41,1.85.59.81.23,1.65.29,2.47.07.76-.2,1.3-1.08,1.05-1.85s-1.03-1.26-1.85-1.05h0Z"/>
    <path class="cls-4" d="m159.37,106.6c-1.08.02-2.11-.16-3.09-.63-1.34-.64-2.78.67-2.05,2.05s.73,2.86,1.14,4.27c.43,1.48,1.17,2.7,2.41,3.62.79.59,1.97-.05,2.2-.9.31-1.16.63-2.32.94-3.48.29-1.09.39-2.28-.5-3.13-.83-.8-2.23-.82-3.01.05-.83.92-.45,2.43-.38,3.55.15,2.38.21,4.79.5,7.15.27,2.16.86,4.5,2.67,5.9.78.6,1.78.59,2.36-.3,1.55-2.39.95-5.42-.11-7.88s-2.73-4.42-5.26-5.21c-.85-.27-2.01.48-1.9,1.45.27,2.43.78,4.79,1.6,7.1l1.45-1.9.37.28c-1.04-1.62-3.63-.12-2.59,1.51.49.77,1.28,1.28,2.22,1.2s1.8-.91,1.45-1.9c-.72-2.04-1.25-4.15-1.49-6.3l-1.9,1.45c1.66.52,2.72,2.07,3.37,3.61s1.19,3.56.21,5.08l2.36-.3c-1.71-1.32-1.83-3.69-1.96-5.69-.08-1.2-.15-2.4-.23-3.6-.04-.66-.08-1.31-.13-1.97-.03-.5-.23-1.27-.09-1.76l-.39.66-.03.03-.76.2c-.39-.73-.59-.89-.61-.48-.05.19-.1.38-.15.56-.09.35-.19.71-.29,1.06l-.61,2.27,2.2-.9c-.84-.63-1.08-1.9-1.28-2.86-.29-1.38-.53-2.7-1.2-3.96l-2.05,2.05c1.46.7,2.98,1.07,4.6,1.04,1.93-.04,1.93-3.04,0-3h0Z"/>
    <path class="cls-4" d="m114.17,67.98l-4.22-1.45c-.74-.26-1.67.29-1.85,1.05-.19.83.25,1.57,1.05,1.85l4.22,1.45c.74.26,1.67-.29,1.85-1.05.19-.83-.25-1.57-1.05-1.85h0Z"/>
    <path class="cls-4" d="m109.65,66.72l-1.55-.45c-.2-.06-.4-.07-.6-.03-.2,0-.39.07-.56.18-.17.09-.32.22-.42.39-.13.14-.22.31-.27.51l-.05.4c0,.27.07.52.2.76.21.33.51.58.9.69l1.55.45c.2.06.4.07.6.03.2,0,.39-.07.56-.18.17-.09.32-.22.42-.39.13-.14.22-.31.27-.51l.05-.4c0-.27-.07-.52-.2-.76-.21-.33-.51-.58-.9-.69h0Z"/>
    <path class="cls-2" d="m111.5,95.75c.41-1.83-.03-3.58-.5-5.36s-.9-3.41-1.34-5.11l-1.85,1.85c1.34.55,2.69,1.11,4.08,1.51,1.18.34,2.53.42,3.62,1.03s1.96,1.71,2.83,2.61c1.06,1.09,2.12,2.18,3.17,3.28,1.35,1.39,3.47-.73,2.12-2.12-1.09-1.13-2.18-2.25-3.27-3.38-1.02-1.06-2.03-2.24-3.34-2.97s-2.69-.88-4.07-1.25c-1.49-.41-2.92-.99-4.34-1.58-1.11-.46-2.11.85-1.85,1.85.4,1.52.8,3.05,1.2,4.57.36,1.36.95,2.88.64,4.3-.42,1.88,2.47,2.68,2.89.8h0Z"/>
    <path class="cls-2" d="m104.76,70.3c.64.2,1.26.43,1.88.69l-.36-.15c.92.39,1.82.84,2.68,1.36.67.4,1.68.17,2.05-.54s.18-1.62-.54-2.05c-1.54-.92-3.2-1.66-4.91-2.2-.75-.24-1.67.28-1.85,1.05-.19.82.25,1.59,1.05,1.85h0Z"/>
  </g>
  <g id="Layer_4" data-name="Layer 4">
    <path class="cls-5" d="m190.17,130.83h-109.95c-1.11,0-1.9,1.1-1.54,2.15l25.78,75.37c.22.66.84,1.1,1.54,1.1h59.41c.7,0,1.32-.45,1.54-1.12l24.76-75.37c.34-1.05-.44-2.13-1.54-2.13Z"/>
    <rect class="cls-5" x="74.14" y="122.65" width="122.08" height="16.35" rx=".39" ry=".39"/>
  </g>
  <g id="Layer_6" data-name="Layer 6">
    <path class="cls-7" d="m378.14,300.84s.05-.02.08-.03c-.04-.2-.06-.4-.07-.6-.16-.57-.18-1.15-.11-1.73-.15-.48-.5-.79-.93-.92-.03-.12-.06-.24-.08-.36-.31.12-.62.24-.92.37,0,0-.01,0-.02,0-.1.03-.2.08-.29.13-4.94,2.17-9.43,5.25-12.75,9.33-12.17-14.6-28.55-26.5-48.59-28.6-10.96-1.15-22.57.75-32,6.32-9.17,5.41-14.47,14.19-21.57,21.58-3.9,4.06-8.46,7.48-14.23,8.69-6.47,1.36-13.17.24-19.76.32.04-.27.1-.53.18-.8-.49.07-.99.15-1.47.23,0,0,0-.02-.01-.03-2.48.17-4.88.1-7.19-.2-1.03-.18-2.06-.37-3.08-.59-.12-.03-.25-.04-.37-.05-3.06-.71-5.94-1.82-8.63-3.26-.24-.39-.65-.72-1.26-.86-.25-.09-.49-.18-.73-.27-.87-.54-1.72-1.12-2.54-1.73-2.08-.84-4-2-6.09-3.38-1.85-1.22-4.02-1.89-5.89-3.01.15.2.28.42.43.62-5-3.79-9.25-8.47-12.4-13.78-3.48-5.87-4.99-12.43-7.59-18.65-2.72-6.48-6.37-12.69-7.85-19.58-.84-3.92-.72-7.8.52-11.63.5-1.54,1.06-3.05,1.56-4.57.38-.3.65-.75.67-1.35.01-.35.03-.69.04-1.04.34-1.32.59-2.67.66-4.07.02-.53-.16-.94-.44-1.23l.44-10.9c.22-5.45.88-11.02-1.12-16.26-.89-2.33-2.02-4.64-3.32-6.79-1.13-1.88-2.63-3.65-4.77-4.53-4.87-2.02-9.73,1.33-12.86,4.63-4.07,4.29-7.4,9.16-9.92,14.41-.05.11-.09.22-.12.33-1.13.59-2.35,1.03-3.63,1.31-2.57.57-5.25.5-7.88.39-2.85-.62-5.52-1.77-7.49-3.9-1.76-12.26-7.48-23.79-16.44-32.87-.32-.32-.68-.49-1.03-.55-1.85-1-4.09-.8-5.79.61-1.93,1.61-2.26,4.08-2.45,6.37-.46,5.67-.51,11.28.44,16.91,1.24,7.34,4.02,14.37,8.06,20.71-.01.17,0,.35.04.53,2.8,12.5,17.69,17.55,23.37,28.51,3.14,6.07,3.87,13,3.93,19.66.07,7.68-.65,15.36-.94,23.03-.66,17.19-.49,34.4.52,51.57.25,4.32.55,8.63.91,12.94.3,3.61.32,7.5,1.8,10.9,1.52,3.49,4.67,5.55,8.05,7.32,3.62,1.89,7.42,3.48,11.28,4.87,2.08.75,4.18,1.43,6.3,2.07.16.22.36.41.61.54.12.06.24.11.36.14.39-.12.8-.21,1.25-.24,4.28-.32,8.39.02,12.56.45.4-.09.8-.18,1.23-.22.31-.03.63-.02.94-.03-.43-.1-.86-.2-1.29-.3h165.42s0,0,0,0c3.39.69,6.81.19,9.78-1.35.37-.08.74-.16,1.12-.23.17-.03.33-.07.49-.11.45.17.99.17,1.4-.02,4.51-2.02,8.67-4.74,12.37-7.99.17.07.37.11.59.11.81,0,1.27-.53,1.41-1.14.52-.23.8-.75.83-1.29.42.08.87,0,1.27-.37,8.31-7.59,13.57-18.14,14.81-29.29.12-.2.19-.45.19-.74v-1.48c0-.11.02-.23.03-.34,0-.14,0-.27-.03-.38v-32.3Z"/>
    <path d="m150.14,325.32c-7.4-18.74-6.24-39.77-5.14-59.64.14-2.52-3.49-2.51-3.62,0-1.14,20.69-2.05,42.14,5.63,61.62.91,2.32,4.04.32,3.13-1.98Z"/>
    <path d="m194.59,350.58c-1.6-5.99-4.21-11.88-6.72-17.47-2.92-6.52-6.25-12.81-9.92-18.86-1.17-1.92-4.04-.13-2.86,1.81,5.8,9.55,10.73,19.72,14.58,30.37.83,2.29,2.56,5.59,1.98,8.12-.53,2.32-3.25,3.8-5.05,4.79-4.31,2.36-9.26,3.11-14.04,2.79-6.02-.41-11.86-2.57-17.34-5.22-1.93-.93-3.62,2.16-1.67,3.1,10.23,4.95,22.05,8.24,32.87,3.34,2.34-1.06,4.81-2.46,6.58-4.47,2.07-2.34,2.39-5.26,1.58-8.3Z"/>
    <path d="m276.38,312.06c-7.74-2.4-16.47-1.39-23.35,2.93-6.33,3.97-10.93,10.47-12.59,17.74-.43,1.88,2.46,2.68,2.89.8,1.49-6.53,5.51-12.38,11.21-15.95,6.25-3.91,14.03-4.8,21.04-2.63,1.85.57,2.64-2.32.8-2.89Z"/>
    <path d="m354.95,339.09c-2.84,6.99-8.19,12.77-14.56,16.71-7.28,4.5-15.79,6.48-24.31,6.42-5.15-.03-10.25-.79-15.22-2.11-1.87-.49-2.67,2.4-.8,2.89,17.47,4.61,37.55,2.15,50.39-11.57,3.16-3.38,5.65-7.27,7.39-11.55.73-1.79-2.17-2.57-2.89-.8Z"/>
    <path d="m370.33,320.38c-1.81-8.76-7.54-16.53-15.35-20.9-1.69-.94-3.2,1.65-1.51,2.59,7.18,4.02,12.31,11.06,13.97,19.11.39,1.89,3.28,1.09,2.89-.8Z"/>
  </g>
</svg>