<?xml version="1.0" encoding="UTF-8"?>
<svg xmlns="http://www.w3.org/2000/svg" viewBox="0 0 380.31 378.28">
  <defs>
    <style>
      .cls-1 {
        fill: #f9d967;
      }

      .cls-2 {
        fill: #8cc63f;
      }

      .cls-3 {
        fill: #f7931e;
        stroke: #c69c6d;
      }

      .cls-3, .cls-4, .cls-5 {
        stroke-miterlimit: 10;
      }

      .cls-4 {
        fill: #aeebff;
      }

      .cls-4, .cls-5 {
        stroke: #000;
      }

      .cls-5 {
        fill: #c69c6d;
      }
    </style>
  </defs>
  <g id="Layer_1" data-name="Layer 1">
    <path class="cls-4" d="m377.65,297.09c.03-.48.08-.95.13-1.42V47.7c0-25.96-21.24-47.2-47.2-47.2H47.7C21.74.5.5,21.74.5,47.7v282.89c0,25.96,21.24,47.2,47.2,47.2h282.89c25.96,0,47.2-21.24,47.2-47.2v-32.17c-.11-.42-.16-.85-.13-1.32Z"/>
  </g>
  <g id="Layer_3" data-name="Layer 3">
    <g>
      <path class="cls-1" d="m323.32,61.74c-.59-1.91-1.96-3.39-3.33-4.78-2.81-2.85-6.23-5.43-10.28-6.05-2.23-.34-4.48-.13-6.64-.89-2.13-.75-4.05-1.47-6.35-1.48-2.29-.01-4.62.43-6.85.93-1.95.44-3.48,1.4-4.34,3.25-3.23,6.97-4.31,17.71,3.05,22.54,1.76,1.16,3.85,1.6,5.92,1.78,2.07.18,4.43.31,6.44-.32,3.6-1.13,5.66-4.45,7.37-7.58.92-1.68,2.51-3.71,1.27-5.62-.98-1.52-2.85-2.92-4.35-3.89-3.53-2.27-7.9-1.99-10.39,1.57-1.25,1.78-2.11,3.88-3.09,5.81-.94,1.84,1.84,3.48,2.78,1.63.81-1.6,1.58-3.24,2.46-4.8.85-1.5,1.93-2.65,3.77-2.5,1.62.13,3.03,1.09,4.22,2.13.33.29,1.8,1.31,1.84,1.73.01.15-.37.59-.47.78-.28.51-.55,1.02-.83,1.53-1.34,2.45-2.93,5.53-5.88,6.22-1.61.37-3.51.23-5.14.08-1.77-.16-3.52-.63-4.9-1.8-2.46-2.07-3.41-5.41-3.35-8.52.04-1.88.4-3.72.89-5.52.4-1.44.74-3.94,2.03-4.87,1.14-.82,3.24-.89,4.58-1.1,1.85-.29,3.79-.4,5.61.1,1.66.46,3.17,1.28,4.89,1.55,1.88.3,3.82.12,5.67.57,3.29.79,5.95,3.09,8.23,5.48,1.13,1.18,2.06,2.29,2.28,3.96.24,1.81.08,3.79-.11,5.59-.68,6.45-4.32,11.98-10.36,14.59-2.75,1.19-5.67,1.55-8.64,1.23-1.77-.19-3.52-.48-5.3-.56-1.92-.08-3.84-.03-5.75-.18-3.73-.29-7.72-1.7-11.03-3.42-3.04-1.58-3.96-4.72-4.59-7.87-.76-3.81-1.02-7.87-.14-11.69.94-4.04,3.31-6.99,5.89-10.13,2.44-2.97,4.77-6.45,8.77-7.29,3.77-.79,7.76.52,11.22,1.9,1.93.77,2.76-2.35.86-3.11-3.81-1.52-7.97-2.66-12.1-2.05-4.35.65-7.16,3.54-9.82,6.79-2.79,3.41-5.83,6.67-7.31,10.9-1.39,3.96-1.5,8.3-.98,12.42.48,3.79,1.23,8.07,3.95,10.96,1.47,1.56,3.45,2.36,5.4,3.14,2.19.88,4.4,1.75,6.73,2.23,2.28.47,4.59.52,6.91.56,2.3.04,4.54.28,6.83.56,3.78.46,7.46-.11,10.92-1.69,3.3-1.51,6.16-3.93,8.24-6.9,2.39-3.4,3.37-7.5,3.64-11.59.13-2.05.28-4.33-.34-6.33Z"/>
      <path class="cls-1" d="m281.28,37.53c-1-1.39-1.91-2.84-2.72-4.35-.39-.73-.76-1.47-1.11-2.22-.09-.2-.18-.4-.27-.6-.04-.1-.09-.2-.13-.3.05.13.04.11-.03-.07-.17-.41-.33-.82-.49-1.23-.3-.79-1.1-1.41-1.98-1.13-.77.25-1.44,1.14-1.13,1.98,1.28,3.39,2.96,6.61,5.07,9.56.49.68,1.43,1.08,2.21.58.68-.44,1.1-1.47.58-2.21Z"/>
      <path class="cls-1" d="m271.89,45.81c-3.43-1.51-6.95-2.79-10.56-3.8-.81-.23-1.79.28-1.98,1.13-.19.85.26,1.74,1.13,1.98,3.33.93,6.71,2.12,9.79,3.47.77.34,1.77.25,2.21-.58.37-.7.25-1.84-.58-2.21Z"/>
      <path class="cls-1" d="m266.77,58.64c-3.76-1.48-7.83-2.16-11.87-2.01-.87.03-1.61.72-1.61,1.61s.74,1.64,1.61,1.61c3.79-.14,7.48.51,11.01,1.9.81.32,1.77-.35,1.98-1.13.25-.91-.31-1.66-1.13-1.98Z"/>
      <path class="cls-1" d="m265.36,72.97c-.44-.68-1.47-1.11-2.21-.58-2.82,2.03-6.17,3.92-9.18,5.16-.78.32-1.42,1.08-1.13,1.98.24.75,1.15,1.47,1.98,1.13,3.52-1.45,6.86-3.25,9.95-5.48.68-.49,1.08-1.43.58-2.21Z"/>
      <path class="cls-1" d="m272.97,88.72c-.83-.48-1.68-.12-2.21.58-2.71,3.57-4.87,7.49-6.52,11.65-.32.81.35,1.77,1.13,1.98.92.25,1.66-.31,1.98-1.13,1.53-3.85,3.67-7.55,6.2-10.88.53-.69.11-1.8-.58-2.21Z"/>
      <path class="cls-1" d="m286.39,93.81v14.27c0,2.07,3.22,2.08,3.22,0v-14.27c0-2.07-3.22-2.08-3.22,0Z"/>
      <path class="cls-1" d="m309.85,110.28c-1.92-5.33-3.4-10.8-4.42-16.37-.16-.86-1.2-1.34-1.98-1.13-.9.25-1.28,1.12-1.13,1.98,1.02,5.57,2.5,11.04,4.42,16.37.3.82,1.1,1.37,1.98,1.13.79-.22,1.42-1.16,1.13-1.98Z"/>
      <path class="cls-1" d="m334.4,100.08c-3.32-3.26-6.46-6.7-9.43-10.29-.54-.65-1.73-.6-2.28,0-.64.69-.57,1.58,0,2.28,2.96,3.59,6.11,7.02,9.43,10.29.6.59,1.69.65,2.28,0,.59-.64.64-1.65,0-2.28Z"/>
      <path class="cls-1" d="m341.27,82.24c-3.9-.83-7.9-1.09-11.87-.73-.87.08-1.61.68-1.61,1.61,0,.81.74,1.69,1.61,1.61,3.68-.34,7.39-.16,11.01.61.85.18,1.74-.25,1.98-1.13.22-.8-.27-1.8-1.13-1.98Z"/>
      <path class="cls-1" d="m343.64,63.11c-.27-.83-1.11-1.37-1.98-1.13-.65.18-1.3.34-1.95.47-.33.06-.66.12-.99.17-.05,0-.11.02-.16.02-.02,0-.05,0-.1.01-.15.02-.31.04-.46.05-1.33.13-2.68.15-4.01.07-.84-.05-1.65.78-1.61,1.61.04.92.71,1.55,1.61,1.61,2.86.18,5.77-.13,8.54-.91.81-.23,1.39-1.15,1.13-1.98Z"/>
      <path class="cls-1" d="m338.03,41.68c-.26-.82-1.12-1.38-1.98-1.13-4.54,1.36-9.02,4.41-10.08,9.32-.18.82.24,1.78,1.13,1.98.81.18,1.79-.24,1.98-1.13.1-.49.25-.95.43-1.42,0-.01,0,0,0-.01,0-.02.01-.02.03-.06.05-.1.1-.21.16-.32.12-.23.25-.46.39-.68.13-.2.26-.39.4-.59.02-.03.02-.04.04-.05,0,0,0,0,.02-.02.08-.09.15-.18.23-.27.33-.38.68-.73,1.05-1.06.09-.08.19-.16.28-.24.04-.04.06-.05.07-.06,0,0,0,0,.02-.01.2-.15.41-.3.62-.44.44-.29.9-.56,1.38-.8.23-.12.45-.22.68-.33,0,0,.17-.07.24-.1.07-.03.2-.08.22-.09.52-.2,1.05-.38,1.58-.54.81-.24,1.4-1.14,1.13-1.98Z"/>
      <path class="cls-1" d="m317.39,27.76c-.91-.25-1.67.31-1.98,1.13-1.59,4.13-2.41,8.55-2.43,12.98-.01,2.07,3.21,2.08,3.22,0,.03-4.16.82-8.24,2.32-12.12.31-.81-.35-1.77-1.13-1.98Z"/>
      <path class="cls-1" d="m299.02,34.18c-.72-3.07-1.01-6.01-.9-9.23.03-.84-.76-1.65-1.61-1.61-.9.04-1.58.71-1.61,1.61-.12,3.39.24,6.79,1.01,10.09.19.82,1.18,1.39,1.98,1.13.86-.28,1.33-1.1,1.13-1.98Z"/>
    </g>
  </g>
  <g id="Layer_5" data-name="Layer 5">
    <path class="cls-2" d="m193.64,82.73c-3.6,4.36-6.82,9-9.71,13.82,7.3-34.23-13.64-5.65-15.48,9.41-3.91-22.56,4.07-41.32,16.72-59.13-5.38-15.73-25.71,12.74-29.34,19.93-.04-6.26-9.31-34.17-14.64-18.92,2,10.84.35,21.84-.2,32.79-5.29-5.68-10.36-11.97-17.3-15.67-4.27-2.17-8.05,4.27-3.76,6.46,8.88,4.61,12.08,15.03,14.59,24.05-12.28-16.82-20.87-13.22-10.64,6.16-1.77-11.58-44.48-42.02-27.62-13.3,7.34,15.99,9.38,40.06,20.07,52.47,16.66-.05,54.46,11.35,64.33-2-2.85-10.98,32.78-60.11,12.99-56.08Z"/>
  </g>
  <g id="Layer_4" data-name="Layer 4">
    <path class="cls-3" d="m201,130.23h-109.95c-1.11,0-1.9,1.1-1.54,2.15l25.78,75.37c.22.66.84,1.1,1.54,1.1h59.41c.7,0,1.32-.45,1.54-1.12l24.76-75.37c.34-1.05-.44-2.13-1.54-2.13Z"/>
    <rect class="cls-3" x="84.97" y="122.05" width="122.08" height="16.35" rx=".39" ry=".39"/>
  </g>
  <g id="Layer_6" data-name="Layer 6">
    <path class="cls-5" d="m378.14,300.24c.36-.15.71-.31,1.08-.45-.4-.26-.76-.57-1.08-.92v-.54c0-.76-.46-1.21-1.03-1.38-.03-.12-.06-.24-.08-.36-.31.12-.62.24-.92.37,0,0-.01,0-.02,0-.1.03-.2.08-.29.13-4.94,2.17-9.43,5.25-12.75,9.33-12.17-14.6-28.55-26.5-48.59-28.6-10.96-1.15-22.57.75-32,6.32-9.17,5.41-14.47,14.19-21.57,21.58-3.9,4.06-8.46,7.48-14.23,8.69-6.47,1.36-13.17.24-19.76.32.04-.27.1-.53.18-.8-.49.07-.99.15-1.47.23,0,0,0-.02-.01-.03-2.48.17-4.88.1-7.19-.2-1.03-.18-2.06-.37-3.08-.59-.12-.03-.25-.04-.37-.05-3.06-.71-5.94-1.82-8.63-3.26-.24-.39-.65-.72-1.26-.86-.25-.09-.49-.18-.73-.27-.87-.54-1.72-1.12-2.54-1.73-2.08-.84-4-2-6.09-3.38-1.85-1.22-4.02-1.89-5.89-3.01.15.2.28.42.43.62-5-3.79-9.25-8.47-12.4-13.78-3.48-5.87-4.99-12.43-7.59-18.65-2.72-6.48-6.37-12.69-7.85-19.58-.84-3.92-.72-7.8.52-11.63.5-1.54,1.06-3.05,1.56-4.57.38-.3.65-.75.67-1.35.01-.35.03-.69.04-1.04.34-1.32.59-2.67.66-4.07.02-.53-.16-.94-.44-1.23l.44-10.9c.22-5.45.88-11.02-1.12-16.26-.89-2.33-2.02-4.64-3.32-6.79-1.13-1.88-2.63-3.65-4.77-4.53-4.87-2.02-9.73,1.33-12.86,4.63-4.07,4.29-7.4,9.16-9.92,14.41-.05.11-.09.22-.12.33-1.13.59-2.35,1.03-3.63,1.31-2.57.57-5.25.5-7.88.39-2.85-.62-5.52-1.77-7.49-3.9-1.76-12.26-7.48-23.79-16.44-32.87-.32-.32-.68-.49-1.03-.55-1.85-1-4.09-.8-5.79.61-1.93,1.61-2.26,4.08-2.45,6.37-.46,5.67-.51,11.28.44,16.91,1.24,7.34,4.02,14.37,8.06,20.71-.01.17,0,.35.04.53,2.8,12.5,17.69,17.55,23.37,28.51,3.14,6.07,3.87,13,3.93,19.66.07,7.68-.65,15.36-.94,23.03-.66,17.19-.49,34.4.52,51.57.25,4.32.55,8.63.91,12.94.3,3.61.32,7.5,1.8,10.9,1.52,3.49,4.67,5.55,8.05,7.32,3.62,1.89,7.42,3.48,11.28,4.87,2.08.75,4.18,1.43,6.3,2.07.16.22.36.41.61.54.12.06.24.11.36.14.39-.12.8-.21,1.25-.24,4.28-.32,8.39.02,12.56.45.4-.09.8-.18,1.23-.22.31-.03.63-.02.94-.03-.43-.1-.86-.2-1.29-.3h165.42s0,0,0,0c3.39.69,6.81.19,9.78-1.35.37-.08.74-.16,1.12-.23.17-.03.33-.07.49-.11.45.17.99.17,1.4-.02,4.51-2.02,8.67-4.74,12.37-7.99.17.07.37.11.59.11.81,0,1.27-.53,1.41-1.14.52-.23.8-.75.83-1.29.42.08.87,0,1.27-.37,8.31-7.59,13.57-18.14,14.81-29.29.12-.2.19-.45.19-.74v-1.48c0-.11.02-.23.03-.34,0-.14,0-.27-.03-.38v-32.3Z"/>
    <path d="m150.14,324.72c-7.4-18.74-6.24-39.77-5.14-59.64.14-2.52-3.49-2.51-3.62,0-1.14,20.69-2.05,42.14,5.63,61.62.91,2.32,4.04.32,3.13-1.98Z"/>
    <path d="m194.59,349.98c-1.6-5.99-4.21-11.88-6.72-17.47-2.92-6.52-6.25-12.81-9.92-18.86-1.17-1.92-4.04-.13-2.86,1.81,5.8,9.55,10.73,19.72,14.58,30.37.83,2.29,2.56,5.59,1.98,8.12-.53,2.32-3.25,3.8-5.05,4.79-4.31,2.36-9.26,3.11-14.04,2.79-6.02-.41-11.86-2.57-17.34-5.22-1.93-.93-3.62,2.16-1.67,3.1,10.23,4.95,22.05,8.24,32.87,3.34,2.34-1.06,4.81-2.46,6.58-4.47,2.07-2.34,2.39-5.26,1.58-8.3Z"/>
    <path d="m276.38,311.46c-7.74-2.4-16.47-1.39-23.35,2.93-6.33,3.97-10.93,10.47-12.59,17.74-.43,1.88,2.46,2.68,2.89.8,1.49-6.53,5.51-12.38,11.21-15.95,6.25-3.91,14.03-4.8,21.04-2.63,1.85.57,2.64-2.32.8-2.89Z"/>
    <path d="m354.95,338.49c-2.84,6.99-8.19,12.77-14.56,16.71-7.28,4.5-15.79,6.48-24.31,6.42-5.15-.03-10.25-.79-15.22-2.11-1.87-.49-2.67,2.4-.8,2.89,17.47,4.61,37.55,2.15,50.39-11.57,3.16-3.38,5.65-7.27,7.39-11.55.73-1.79-2.17-2.57-2.89-.8Z"/>
    <path d="m370.33,319.79c-1.81-8.76-7.54-16.53-15.35-20.9-1.69-.94-3.2,1.65-1.51,2.59,7.18,4.02,12.31,11.06,13.97,19.11.39,1.89,3.28,1.09,2.89-.8Z"/>
  </g>
</svg>