<svg id="visual" viewBox="0 0 450 900" width="450" height="900" xmlns="http://www.w3.org/2000/svg" xmlns:xlink="http://www.w3.org/1999/xlink" version="1.1"><path d="M0 91L5.3 104.5C10.7 118 21.3 145 32 142C42.7 139 53.3 106 64 109C74.7 112 85.3 151 96.2 148C107 145 118 100 128.8 79C139.7 58 150.3 61 161 74.5C171.7 88 182.3 112 193 116.5C203.7 121 214.3 106 225 116.5C235.7 127 246.3 163 257 175C267.7 187 278.3 175 289 179.5C299.7 184 310.3 205 321.2 200.5C332 196 343 166 353.8 164.5C364.7 163 375.3 190 386 190C396.7 190 407.3 163 418 145C428.7 127 439.3 118 444.7 113.5L450 109L450 0L444.7 0C439.3 0 428.7 0 418 0C407.3 0 396.7 0 386 0C375.3 0 364.7 0 353.8 0C343 0 332 0 321.2 0C310.3 0 299.7 0 289 0C278.3 0 267.7 0 257 0C246.3 0 235.7 0 225 0C214.3 0 203.7 0 193 0C182.3 0 171.7 0 161 0C150.3 0 139.7 0 128.8 0C118 0 107 0 96.2 0C85.3 0 74.7 0 64 0C53.3 0 42.7 0 32 0C21.3 0 10.7 0 5.3 0L0 0Z" fill="#50b307"></path><path d="M0 343L5.3 356.5C10.7 370 21.3 397 32 370C42.7 343 53.3 262 64 259C74.7 256 85.3 331 96.2 335.5C107 340 118 274 128.8 281.5C139.7 289 150.3 370 161 392.5C171.7 415 182.3 379 193 365.5C203.7 352 214.3 361 225 362.5C235.7 364 246.3 358 257 373C267.7 388 278.3 424 289 425.5C299.7 427 310.3 394 321.2 356.5C332 319 343 277 353.8 293.5C364.7 310 375.3 385 386 427C396.7 469 407.3 478 418 479.5C428.7 481 439.3 475 444.7 472L450 469L450 107L444.7 111.5C439.3 116 428.7 125 418 143C407.3 161 396.7 188 386 188C375.3 188 364.7 161 353.8 162.5C343 164 332 194 321.2 198.5C310.3 203 299.7 182 289 177.5C278.3 173 267.7 185 257 173C246.3 161 235.7 125 225 114.5C214.3 104 203.7 119 193 114.5C182.3 110 171.7 86 161 72.5C150.3 59 139.7 56 128.8 77C118 98 107 143 96.2 146C85.3 149 74.7 110 64 107C53.3 104 42.7 137 32 140C21.3 143 10.7 116 5.3 102.5L0 89Z" fill="#409f10"></path><path d="M0 388L5.3 410.5C10.7 433 21.3 478 32 467.5C42.7 457 53.3 391 64 382C74.7 373 85.3 421 96.2 416.5C107 412 118 355 128.8 362.5C139.7 370 150.3 442 161 472C171.7 502 182.3 490 193 490C203.7 490 214.3 502 225 497.5C235.7 493 246.3 472 257 485.5C267.7 499 278.3 547 289 547C299.7 547 310.3 499 321.2 461.5C332 424 343 397 353.8 409C364.7 421 375.3 472 386 505C396.7 538 407.3 553 418 562C428.7 571 439.3 574 444.7 575.5L450 577L450 467L444.7 470C439.3 473 428.7 479 418 477.5C407.3 476 396.7 467 386 425C375.3 383 364.7 308 353.8 291.5C343 275 332 317 321.2 354.5C310.3 392 299.7 425 289 423.5C278.3 422 267.7 386 257 371C246.3 356 235.7 362 225 360.5C214.3 359 203.7 350 193 363.5C182.3 377 171.7 413 161 390.5C150.3 368 139.7 287 128.8 279.5C118 272 107 338 96.2 333.5C85.3 329 74.7 254 64 257C53.3 260 42.7 341 32 368C21.3 395 10.7 368 5.3 354.5L0 341Z" fill="#318b14"></path><path d="M0 460L5.3 475C10.7 490 21.3 520 32 502C42.7 484 53.3 418 64 418C74.7 418 85.3 484 96.2 484C107 484 118 418 128.8 418C139.7 418 150.3 484 161 515.5C171.7 547 182.3 544 193 548.5C203.7 553 214.3 565 225 563.5C235.7 562 246.3 547 257 556C267.7 565 278.3 598 289 592C299.7 586 310.3 541 321.2 512.5C332 484 343 472 353.8 490C364.7 508 375.3 556 386 587.5C396.7 619 407.3 634 418 635.5C428.7 637 439.3 625 444.7 619L450 613L450 575L444.7 573.5C439.3 572 428.7 569 418 560C407.3 551 396.7 536 386 503C375.3 470 364.7 419 353.8 407C343 395 332 422 321.2 459.5C310.3 497 299.7 545 289 545C278.3 545 267.7 497 257 483.5C246.3 470 235.7 491 225 495.5C214.3 500 203.7 488 193 488C182.3 488 171.7 500 161 470C150.3 440 139.7 368 128.8 360.5C118 353 107 410 96.2 414.5C85.3 419 74.7 371 64 380C53.3 389 42.7 455 32 465.5C21.3 476 10.7 431 5.3 408.5L0 386Z" fill="#237815"></path><path d="M0 748L5.3 745C10.7 742 21.3 736 32 725.5C42.7 715 53.3 700 64 685C74.7 670 85.3 655 96.2 662.5C107 670 118 700 128.8 713.5C139.7 727 150.3 724 161 725.5C171.7 727 182.3 733 193 745C203.7 757 214.3 775 225 782.5C235.7 790 246.3 787 257 781C267.7 775 278.3 766 289 760C299.7 754 310.3 751 321.2 757C332 763 343 778 353.8 781C364.7 784 375.3 775 386 770.5C396.7 766 407.3 766 418 763C428.7 760 439.3 754 444.7 751L450 748L450 611L444.7 617C439.3 623 428.7 635 418 633.5C407.3 632 396.7 617 386 585.5C375.3 554 364.7 506 353.8 488C343 470 332 482 321.2 510.5C310.3 539 299.7 584 289 590C278.3 596 267.7 563 257 554C246.3 545 235.7 560 225 561.5C214.3 563 203.7 551 193 546.5C182.3 542 171.7 545 161 513.5C150.3 482 139.7 416 128.8 416C118 416 107 482 96.2 482C85.3 482 74.7 416 64 416C53.3 416 42.7 482 32 500C21.3 518 10.7 488 5.3 473L0 458Z" fill="#176514"></path><path d="M0 847L5.3 838C10.7 829 21.3 811 32 808C42.7 805 53.3 817 64 815.5C74.7 814 85.3 799 96.2 800.5C107 802 118 820 128.8 818.5C139.7 817 150.3 796 161 793C171.7 790 182.3 805 193 818.5C203.7 832 214.3 844 225 853C235.7 862 246.3 868 257 857.5C267.7 847 278.3 820 289 815.5C299.7 811 310.3 829 321.2 838C332 847 343 847 353.8 839.5C364.7 832 375.3 817 386 817C396.7 817 407.3 832 418 833.5C428.7 835 439.3 823 444.7 817L450 811L450 746L444.7 749C439.3 752 428.7 758 418 761C407.3 764 396.7 764 386 768.5C375.3 773 364.7 782 353.8 779C343 776 332 761 321.2 755C310.3 749 299.7 752 289 758C278.3 764 267.7 773 257 779C246.3 785 235.7 788 225 780.5C214.3 773 203.7 755 193 743C182.3 731 171.7 725 161 723.5C150.3 722 139.7 725 128.8 711.5C118 698 107 668 96.2 660.5C85.3 653 74.7 668 64 683C53.3 698 42.7 713 32 723.5C21.3 734 10.7 740 5.3 743L0 746Z" fill="#0c5212"></path><path d="M0 901L5.3 901C10.7 901 21.3 901 32 901C42.7 901 53.3 901 64 901C74.7 901 85.3 901 96.2 901C107 901 118 901 128.8 901C139.7 901 150.3 901 161 901C171.7 901 182.3 901 193 901C203.7 901 214.3 901 225 901C235.7 901 246.3 901 257 901C267.7 901 278.3 901 289 901C299.7 901 310.3 901 321.2 901C332 901 343 901 353.8 901C364.7 901 375.3 901 386 901C396.7 901 407.3 901 418 901C428.7 901 439.3 901 444.7 901L450 901L450 809L444.7 815C439.3 821 428.7 833 418 831.5C407.3 830 396.7 815 386 815C375.3 815 364.7 830 353.8 837.5C343 845 332 845 321.2 836C310.3 827 299.7 809 289 813.5C278.3 818 267.7 845 257 855.5C246.3 866 235.7 860 225 851C214.3 842 203.7 830 193 816.5C182.3 803 171.7 788 161 791C150.3 794 139.7 815 128.8 816.5C118 818 107 800 96.2 798.5C85.3 797 74.7 812 64 813.5C53.3 815 42.7 803 32 806C21.3 809 10.7 827 5.3 836L0 845Z" fill="#04400f"></path></svg>