<svg id="visual" viewBox="0 0 900 600" width="900" height="600" xmlns="http://www.w3.org/2000/svg" xmlns:xlink="http://www.w3.org/1999/xlink" version="1.1"><path d="M0 301L21.5 308.7C43 316.3 86 331.7 128.8 337.8C171.7 344 214.3 341 257.2 328.2C300 315.3 343 292.7 385.8 288.2C428.7 283.7 471.3 297.3 514.2 294C557 290.7 600 270.3 642.8 271.8C685.7 273.3 728.3 296.7 771.2 299.5C814 302.3 857 284.7 878.5 275.8L900 267L900 601L878.5 601C857 601 814 601 771.2 601C728.3 601 685.7 601 642.8 601C600 601 557 601 514.2 601C471.3 601 428.7 601 385.8 601C343 601 300 601 257.2 601C214.3 601 171.7 601 128.8 601C86 601 43 601 21.5 601L0 601Z" fill="#207843"></path><path d="M0 330L21.5 327.2C43 324.3 86 318.7 128.8 329C171.7 339.3 214.3 365.7 257.2 378.7C300 391.7 343 391.3 385.8 388.8C428.7 386.3 471.3 381.7 514.2 371.3C557 361 600 345 642.8 349.7C685.7 354.3 728.3 379.7 771.2 393.2C814 406.7 857 408.3 878.5 409.2L900 410L900 601L878.5 601C857 601 814 601 771.2 601C728.3 601 685.7 601 642.8 601C600 601 557 601 514.2 601C471.3 601 428.7 601 385.8 601C343 601 300 601 257.2 601C214.3 601 171.7 601 128.8 601C86 601 43 601 21.5 601L0 601Z" fill="#00634c"></path><path d="M0 447L21.5 442.3C43 437.7 86 428.3 128.8 421.7C171.7 415 214.3 411 257.2 407.8C300 404.7 343 402.3 385.8 404C428.7 405.7 471.3 411.3 514.2 422.2C557 433 600 449 642.8 445C685.7 441 728.3 417 771.2 404C814 391 857 389 878.5 388L900 387L900 601L878.5 601C857 601 814 601 771.2 601C728.3 601 685.7 601 642.8 601C600 601 557 601 514.2 601C471.3 601 428.7 601 385.8 601C343 601 300 601 257.2 601C214.3 601 171.7 601 128.8 601C86 601 43 601 21.5 601L0 601Z" fill="#004c49"></path><path d="M0 489L21.5 486.2C43 483.3 86 477.7 128.8 480.8C171.7 484 214.3 496 257.2 494.3C300 492.7 343 477.3 385.8 474.3C428.7 471.3 471.3 480.7 514.2 485.7C557 490.7 600 491.3 642.8 495.5C685.7 499.7 728.3 507.3 771.2 510.7C814 514 857 513 878.5 512.5L900 512L900 601L878.5 601C857 601 814 601 771.2 601C728.3 601 685.7 601 642.8 601C600 601 557 601 514.2 601C471.3 601 428.7 601 385.8 601C343 601 300 601 257.2 601C214.3 601 171.7 601 128.8 601C86 601 43 601 21.5 601L0 601Z" fill="#0f363a"></path><path d="M0 497L21.5 499.7C43 502.3 86 507.7 128.8 512.2C171.7 516.7 214.3 520.3 257.2 523.2C300 526 343 528 385.8 531C428.7 534 471.3 538 514.2 539.2C557 540.3 600 538.7 642.8 535C685.7 531.3 728.3 525.7 771.2 529.8C814 534 857 548 878.5 555L900 562L900 601L878.5 601C857 601 814 601 771.2 601C728.3 601 685.7 601 642.8 601C600 601 557 601 514.2 601C471.3 601 428.7 601 385.8 601C343 601 300 601 257.2 601C214.3 601 171.7 601 128.8 601C86 601 43 601 21.5 601L0 601Z" fill="#162125"></path></svg>